<?xml version="1.0" encoding="UTF-8" standalone="no"?>
<!-- Created with Inkscape (http://www.inkscape.org/) -->
<svg id="svg2" xmlns:rdf="http://www.w3.org/1999/02/22-rdf-syntax-ns#" xmlns="http://www.w3.org/2000/svg" viewBox="0 0 855.71 215.71" preserveAspectRatio="xMidYMax slice" version="1.1" xmlns:cc="http://creativecommons.org/ns#" xmlns:dc="http://purl.org/dc/elements/1.1/">
 <metadata id="metadata7">
  <rdf:RDF>
   <cc:Work rdf:about="">
    <dc:format>image/svg+xml</dc:format>
    <dc:type rdf:resource="http://purl.org/dc/dcmitype/StillImage"/>
    <dc:title/>
   </cc:Work>
  </rdf:RDF>
 </metadata>
 <g id="layer1" transform="translate(31.071429,31.56639)">
  <path id="path2996" fill="#2a2a2a" d="m-31.071,104.86,8.6876-2.3278,3.6195-13.508,1.3651,5.0947,4.285-15.992,0.56374,2.1039,2.3534-2.3534,2.697,0,1.7282,6.4496,3.6908-3.6908,3.6162,0.96896,4.0676-1.0899,4.5496,4.5496,7.9191-4.5721,2.2975-1.3265,2.8615-2.8615,7.4838,0,6.1071,1.6364,3.6,0.96463,11.455-11.455,0-5.0907,3.8832-3.8832,1.9802,7.3904,0-12.793,18.752-5.0246,10.889-2.9178,14.62-3.9175,4.6065,7.9786,6.1839-6.1839,11.494,0,4.9166-1.3174,4.483,4.483,12.029,0,4.7645-4.7645,3.5758,2.0645,10.206-2.7346,1.121-4.1837,1.7618,0,5.3572,0,10.626-6.135,6.2445-1.6732,45.289-12.135,13.019-3.4886,7.6779,0,4.6561,2.6882,9.4187-5.4379,6.2823-5.1577,2.5-8.9286,3.9286-6.7857,1.0714-12.5,8.9286-5,6.7857-3.5714,13.214,13.929,11.429-3.2143,2.1429-8.5714,12.143,0,2.5,5.7143,9.6429-1.7857,4.6428,2.5,0-3.5714,9.6429-1.4286,10.357,0.71429,4.2857,5.7143,4.6428-0.35714,1.4286-2.8571,2.1428,0.35714,1.4286,2.5,3.2143,0,0-4.6429,7.1429,0.71428,6.0714,4.2857,1.7857,3.5714,13.571,5,8.2143,1.0714,3.2143-1.0714,2.8571-1.0714,2.5,2.1429,10.714-2.1429,9.6429,0,11.786,0.71428,10.357,2.5,2.8572,2.5,1.0714,7.8571,5,3.2143,5,5.3571,2.1428,12.857,7.1429,2.5,5.7143,10,5.3571,3.9286,0,3.2143,3.5714-1.0714,6.4286,5,5-3.2143,8.2143,0.35715,7.5,5.7143,7.8572,13.929,2.5,12.143,2.8571-0.71429-1.4286-5,11.786-8.5714,6.0714,3.2143,26.071-15.714,6.0714-5.7143,8.5714-0.35714,10.714,7.1428,10,5.7143,9.6429,10.357,10,3.9286,6.4286,8.2143,7.1429-1.0714,15.714-4.2857,5-2.1429,28.214,26.429,5.3571,6.0714,32.5-12.143,22.143-8.9286,13.571,2.1429,18.214-1.7857,15,2.5,0,101.43-855,0z"/>
 </g>
</svg>
