<svg xmlns="http://www.w3.org/2000/svg" width="433" height="31" viewBox="-35.481 -5 433 31"><path fill="#0A0B0B" d="M-35.48-2.427l1.446.035c.587.012.988.13 1.222.377.235.234.435.552.564.917l9.09 26.737h1.646l6.326-20.47 6.867 20.47h1.647L.582 1.91C1.134.172 1.676-.945 2.24-1.44c.564-.493 1.47-.834 2.74-1v-1.75H-5.157v1.75c1.53.142 2.505.308 2.963.483.66.305.988.882.988 1.716 0 .246-.023.48-.082.74-.06.27-.118.552-.2.823l-4.95 16.685L-12.32.206c-.118-.4-.2-.693-.26-.905-.057-.2-.08-.4-.08-.575 0-.317.07-.53.222-.658.152-.13.33-.224.553-.283.223-.083.517-.118.894-.13.39-.023 1.035-.046 1.988-.07V-4.19H-21.02v1.75l2.576.13c.33.012.55.083.682.21.14.143.235.272.294.437l1.247 3.738-5.033 15.887-6.09-18.697c-.083-.247-.142-.41-.165-.517-.024-.106-.036-.247-.036-.423 0-.236.106-.424.33-.53.21-.117.46-.166.74-.176.294-.037.565-.048.788-.048h1.917v-1.764h-11.71v1.765zM7.423 25.028h13.71v-1.753c-.4-.012-.93-.023-1.6-.047-.67-.022-1.14-.046-1.41-.058-.54-.082-.953-.247-1.2-.472-.246-.22-.376-.68-.376-1.387V-.427c0-.87.188-1.4.552-1.6.365-.188 1.07-.317 2.117-.352l2.022-.047V-4.19H7.423v1.75c1.223.024 1.964.048 2.223.06.247.01.517.035.8.07.504.048.905.21 1.164.448.282.258.4.658.4 1.246v21.4c0 1.187-.188 1.88-.564 2.093-.388.212-1.73.34-4.022.375v1.776zm41.283 0l.824-10.97-1.798-.084c-.53 4.092-1.964 6.81-4.304 8.197-1.34.777-3.352 1.153-6.056 1.153-1.893 0-3.08-.142-3.55-.436-.482-.305-.706-.986-.706-2.092V-.322c0-1.035.224-1.634.67-1.81.47-.166 1.787-.27 4.01-.295V-4.19H23.98v1.75c2.116.07 3.398.178 3.856.33.46.154.706.742.73 1.776v21.48c0 .577-.082 1.037-.248 1.332-.164.292-.47.503-.93.587-.164.023-.398.07-.668.083-.295 0-1.2.046-2.74.104v1.754h24.727v.022zm27.644 0l.824-10.97-1.798-.084c-.54 4.092-1.964 6.81-4.315 8.197-1.34.777-3.35 1.153-6.043 1.153-1.905 0-3.092-.142-3.563-.436-.47-.305-.704-.986-.704-2.092V-.322c0-1.035.223-1.634.67-1.81.457-.166 1.798-.27 4.01-.295V-4.19H51.61v1.75c2.116.07 3.397.178 3.856.33.46.154.706.742.73 1.776v21.48c0 .577-.084 1.037-.237 1.332-.176.292-.47.503-.93.587-.175.023-.41.07-.68.083-.282 0-1.188.046-2.728.104v1.754H76.35v.022zm3.152 0h13.7v-1.753c-.4-.012-.94-.023-1.612-.047-.67-.022-1.128-.046-1.4-.058-.54-.082-.95-.247-1.2-.472-.258-.22-.4-.68-.4-1.387V-.427c0-.87.2-1.4.565-1.6.377-.188 1.082-.317 2.128-.352l2.01-.047V-4.19h-13.79v1.75c1.21.024 1.95.048 2.198.06.26.01.53.035.813.07.517.048.905.21 1.164.448.26.258.4.658.4 1.246v21.4c0 1.187-.19 1.88-.577 2.093-.388.212-1.717.34-3.998.375v1.776zm30.1-23.434l-4.69 11.84h9.57l-4.88-11.84zm.4-6.35h1.706l11.205 26.704c.247.564.694.94 1.34 1.105.4.117 1.13.187 2.164.21v1.754h-12.84v-1.754c.977-.012 1.74-.035 2.316-.08.576-.05.976-.083 1.2-.154.223-.038.423-.118.576-.248.176-.14.246-.365.246-.682 0-.14-.023-.283-.06-.436-.045-.128-.093-.293-.14-.412l-2.352-5.69h-11.287c-.177.448-.376.94-.576 1.482-.21.53-.364.918-.434 1.15l-.377 1.083c-.106.293-.19.542-.248.812-.047.26-.083.538-.083.855 0 .933.352 1.544 1.035 1.824.693.282 1.75.457 3.186.527v1.753H95.624v-1.753c1.14-.104 2-.34 2.576-.693.574-.328 1.127-1.046 1.657-2.127l.246-.495 9.9-24.737zM128.43 25.03h11.688v-1.753c-2.034-.093-3.364-.517-3.95-1.257-.59-.752-.894-2.07-.894-3.94V-2.145l10.076 27.173h1.563L156.4-2.04v21.717c0 .707-.012 1.258-.012 1.658-.01.424-.022.693-.07.836-.082.413-.587.718-1.492.87-.588.107-1.588.188-3.01.234v1.753h13.71v-1.753c-2.034-.047-3.292-.152-3.775-.294-.49-.15-.75-.55-.786-1.233l-.023-.776V.75c0-1.517.19-2.387.577-2.657.39-.27 1.73-.446 4.02-.528V-4.19h-10.475l-7.714 21.953L139.27-4.19h-10.677v1.752l2.763.047c.6.01 1.047.13 1.353.363.316.236.48.612.494 1.105l.082.953v17.52c0 2.365-.458 3.95-1.364 4.728-.552.493-1.704.812-3.48.986l-.014 1.764zm40.378-11.03l.318 11.382h1.493l1.834-2.89c.954.868 2.175 1.61 3.657 2.223 1.518.62 3.27.926 5.29.926 2.918 0 5.27-.823 7.105-2.47 1.82-1.657 2.727-3.738 2.727-6.254 0-2.293-.613-4.15-1.835-5.562-1.224-1.4-3.08-2.41-5.597-3.022l-5.903-1.48c-1.634-.413-2.81-.895-3.54-1.436-1.2-.917-1.787-2.092-1.787-3.528 0-1.163.506-2.245 1.505-3.28 1.012-1.023 2.552-1.552 4.597-1.552 2.623 0 4.716.94 6.267 2.81 1.54 1.87 2.577 3.962 3.094 6.28l1.8-.072-.47-10.56h-1.48l-1.674 2.576c-.657-.658-1.538-1.257-2.667-1.846-1.495-.647-3.152-.988-5.01-.988-2.704 0-4.903.823-6.584 2.47-1.693 1.645-2.528 3.632-2.528 5.925 0 2.647.964 4.623 2.88 5.927 1.177.788 3.33 1.575 6.432 2.364l3.927.977c2.07.6 3.47 1.317 4.188 2.165.718.857 1.082 1.914 1.082 3.197 0 1.692-.577 3.032-1.73 3.997-1.127.986-2.867 1.482-5.184 1.482-3.127 0-5.526-.99-7.22-2.964-1.68-1.98-2.738-4.26-3.186-6.855l-1.8.06zm27.466-1.504h10.36v-3.35h-10.36v3.35zM211.122 14l.308 11.38h1.48l1.834-2.89c.952.868 2.15 1.61 3.668 2.223 1.504.62 3.256.926 5.292.926 2.917 0 5.268-.823 7.09-2.47 1.824-1.657 2.728-3.738 2.728-6.254 0-2.293-.61-4.15-1.833-5.562-1.213-1.4-3.094-2.41-5.6-3.022l-5.89-1.48c-1.635-.413-2.82-.895-3.55-1.436-1.2-.917-1.786-2.092-1.786-3.528 0-1.163.516-2.245 1.514-3.28 1.012-1.023 2.53-1.552 4.6-1.552 2.62 0 4.713.94 6.253 2.81 1.566 1.87 2.59 3.962 3.108 6.28l1.81-.072-.46-10.56h-1.494l-1.67 2.576c-.645-.658-1.526-1.257-2.656-1.846-1.48-.647-3.15-.988-5.008-.988-2.72 0-4.904.823-6.585 2.47-1.67 1.645-2.52 3.632-2.52 5.925 0 2.647.956 4.623 2.883 5.927 1.164.788 3.305 1.575 6.443 2.364l3.917.977c2.07.6 3.468 1.317 4.188 2.165.703.857 1.07 1.914 1.07 3.197 0 1.692-.577 3.032-1.73 3.997-1.15.986-2.88 1.482-5.186 1.482-3.14 0-5.537-.99-7.22-2.964-1.67-1.98-2.74-4.26-3.2-6.855l-1.798.06zm31.453 4.103c1.4 3.822 3.952 5.74 7.727 5.74 3.833 0 6.43-1.906 7.817-5.727.753-2.048 1.118-4.773 1.118-8.163 0-3.233-.46-5.902-1.377-7.983-1.456-3.28-3.938-4.915-7.465-4.915-3.386 0-5.915 1.646-7.562 4.915-.927 1.976-1.363 4.81-1.363 8.443.012 3.092.366 5.655 1.105 7.69zM260.93.053c2.517 2.94 3.787 6.327 3.787 10.148 0 3.87-1.246 7.314-3.716 10.348-2.762 3.397-6.313 5.103-10.64 5.103-3.87 0-7.232-1.49-10.054-4.454-2.787-2.94-4.185-6.478-4.185-10.606 0-4.104 1.328-7.643 3.997-10.642 2.765-3.115 6.174-4.69 10.243-4.69 4.292-.013 7.81 1.598 10.57 4.796zm4.21 24.975h12.146v-1.753c-1.846-.152-3.058-.434-3.632-.858-.908-.67-1.354-2.067-1.354-4.172V.9l18.708 24.74h1.646V3.134l.022-1.105c.07-1.812.54-3.022 1.376-3.634.553-.376 1.692-.658 3.433-.835v-1.75H285.74v1.75c1.424.107 2.445.32 3.08.648 1.047.588 1.59 1.646 1.634 3.174l.05 1.74v14.452L273.91-4.18h-8.77v1.753c1.8.047 2.952.12 3.47.235.505.118 1.01.482 1.527 1.106v18.543c0 2.41-.328 3.915-.976 4.526-.658.622-1.985 1.058-4.02 1.292v1.753zm39.296-6.925c1.377 3.822 3.975 5.74 7.726 5.74 3.82 0 6.42-1.906 7.818-5.727.73-2.048 1.105-4.773 1.105-8.163 0-3.233-.46-5.902-1.387-7.983-1.446-3.28-3.916-4.915-7.432-4.915-3.41 0-5.928 1.646-7.572 4.915-.918 1.976-1.376 4.81-1.376 8.443.012 3.092.376 5.655 1.118 7.69zM322.79.053c2.528 2.94 3.787 6.327 3.787 10.148 0 3.87-1.247 7.314-3.705 10.348-2.762 3.397-6.312 5.103-10.64 5.103-3.88 0-7.23-1.49-10.042-4.454-2.823-2.94-4.21-6.478-4.21-10.606 0-4.104 1.34-7.643 4.01-10.642 2.752-3.115 6.16-4.69 10.253-4.69 4.245-.013 7.784 1.598 10.546 4.796zm4.362 24.975h11.687v-1.753c-2.046-.093-3.375-.517-3.952-1.257-.61-.752-.88-2.07-.88-3.94V-2.145l10.064 27.173h1.575l9.478-27.068v21.717c0 .707 0 1.258-.012 1.658 0 .424-.023.693-.07.836-.093.413-.588.718-1.48.87-.59.107-1.59.188-3.012.234v1.753h13.7v-1.753c-2.024-.047-3.282-.152-3.764-.294-.494-.15-.764-.55-.8-1.233l-.012-.776V.75c0-1.517.2-2.387.588-2.657.377-.27 1.717-.446 4-.528V-4.19h-10.5l-7.69 21.953-8.08-21.953h-10.675v1.752l2.763.047c.61.01 1.06.13 1.363.363.295.236.46.612.493 1.105l.073.953v17.52c0 2.365-.448 3.95-1.355 4.728-.54.493-1.705.812-3.468.986v1.754h-.035v.01zm53.56-23.434l-4.693 11.84h9.583l-4.892-11.84zm.398-6.35h1.705l11.193 26.704c.246.564.67.94 1.342 1.105.422.117 1.13.187 2.187.21v1.754h-12.852v-1.754c.977-.012 1.738-.035 2.315-.08.565-.05.964-.083 1.2-.154.224-.038.41-.118.576-.248.165-.14.258-.365.258-.682 0-.14-.023-.283-.08-.436-.013-.128-.07-.293-.12-.412l-2.35-5.69h-11.278c-.175.448-.375.94-.588 1.482-.198.53-.342.918-.434 1.15l-.388 1.083c-.108.293-.2.542-.246.812-.072.26-.084.538-.084.855 0 .933.354 1.544 1.046 1.824.693.282 1.753.457 3.2.527v1.753H366.74v-1.753c1.128-.104 1.998-.34 2.575-.693.587-.328 1.14-1.046 1.646-2.127l.248-.495 9.902-24.737z"/></svg>