<?xml version="1.0" encoding="UTF-8" standalone="no"?>
<!-- Created with Inkscape (http://www.inkscape.org/) -->

<svg
   xmlns:dc="http://purl.org/dc/elements/1.1/"
   xmlns:cc="http://creativecommons.org/ns#"
   xmlns:rdf="http://www.w3.org/1999/02/22-rdf-syntax-ns#"
   xmlns:svg="http://www.w3.org/2000/svg"
   xmlns="http://www.w3.org/2000/svg"
   xmlns:sodipodi="http://sodipodi.sourceforge.net/DTD/sodipodi-0.dtd"
   xmlns:inkscape="http://www.inkscape.org/namespaces/inkscape"
   width="435.43909"
   height="432.57703"
   id="svg2"
   version="1.1"
   inkscape:version="0.48.5 r10040"
   sodipodi:docname="New document 1">
  <defs
     id="defs4" />
  <sodipodi:namedview
     id="base"
     pagecolor="#ffffff"
     bordercolor="#666666"
     borderopacity="1.0"
     inkscape:pageopacity="0.0"
     inkscape:pageshadow="2"
     inkscape:zoom="0.7"
     inkscape:cx="13.953108"
     inkscape:cy="179.98002"
     inkscape:document-units="px"
     inkscape:current-layer="layer1"
     showgrid="false"
     fit-margin-top="0"
     fit-margin-left="0"
     fit-margin-right="0"
     fit-margin-bottom="0"
     inkscape:window-width="1364"
     inkscape:window-height="747"
     inkscape:window-x="0"
     inkscape:window-y="19"
     inkscape:window-maximized="0" />
  <metadata
     id="metadata7">
    <rdf:RDF>
      <cc:Work
         rdf:about="">
        <dc:format>image/svg+xml</dc:format>
        <dc:type
           rdf:resource="http://purl.org/dc/dcmitype/StillImage" />
        <dc:title></dc:title>
      </cc:Work>
    </rdf:RDF>
  </metadata>
  <g
     inkscape:label="Layer 1"
     inkscape:groupmode="layer"
     id="layer1"
     transform="translate(-155.13759,-281.78795)">
    <path
       sodipodi:type="star"
       style="fill:#f2cb67;fill-opacity:1;stroke:none"
       id="path3761"
       sodipodi:sides="30"
       sodipodi:cx="211.42857"
       sodipodi:cy="365.21933"
       sodipodi:r1="173.4332"
       sodipodi:r2="219.53569"
       sodipodi:arg1="0.78539816"
       sodipodi:arg2="0.89011792"
       inkscape:flatsided="false"
       inkscape:rounded="0.05"
       inkscape:randomized="0"
       d="m 334.06436,487.85512 c -1.78276,1.78276 17.48185,46.38884 15.5225,47.97549 -1.95935,1.58664 -41.58533,-26.53111 -43.6998,-25.15796 -2.11446,1.37315 7.45504,49.00981 5.20863,50.15441 -2.24641,1.14461 -35.16047,-34.59741 -37.51422,-33.69389 -2.35375,0.90352 -2.89758,49.48882 -5.33288,50.14135 -2.4353,0.65254 -27.19892,-41.15165 -29.68909,-40.75724 -2.49016,0.3944 -13.12356,47.80492 -15.64132,47.93687 -2.51775,0.13195 -18.04865,-45.90736 -20.5664,-46.03931 -2.51775,-0.13195 -22.77599,44.03174 -25.26615,43.63733 -2.49017,-0.3944 -8.10957,-48.6567 -10.54487,-49.30924 -2.4353,-0.65253 -31.43299,38.33414 -33.78674,37.43062 -2.35375,-0.90352 2.18394,-49.27951 -0.0625,-50.42411 -2.24641,-1.1446 -38.716221,30.96116 -40.830683,29.58801 -2.114463,-1.37315 12.382003,-47.74856 10.422663,-49.33521 -1.95935,-1.58665 -44.307369,22.23503 -46.090132,20.45226 -1.782763,-1.78276 22.038915,-44.13078 20.452267,-46.09012 -1.586647,-1.95935 -47.962066,12.53712 -49.335214,10.42266 -1.373148,-2.11447 30.732617,-38.58427 29.588013,-40.83069 -1.144604,-2.24641 -49.5205939,2.29128 -50.4241139,-0.0625 -0.90352,-2.35375 38.0831559,-31.35144 37.4306199,-33.78674 -0.652537,-2.43529 -48.9148343,-8.05469 -49.3092381,-10.54486 -0.3944038,-2.49017 43.7692791,-22.74841 43.6373291,-25.26616 -0.13195,-2.51775 -46.1712615,-18.04865 -46.0393116,-20.5664 0.1319498,-2.51775 47.5424736,-13.15115 47.9368776,-15.64132 0.394404,-2.49017 -41.4097829,-27.25379 -40.75724637,-29.68909 0.65253653,-2.4353 49.23783437,-2.97913 50.14135437,-5.33288 0.90352,-2.35375 -34.838498,-35.26781 -33.693894,-37.51422 1.144605,-2.24641 48.781266,7.32309 50.154414,5.20863 1.373149,-2.11446 -26.744604,-41.74045 -25.157956,-43.6998 1.586647,-1.95934 46.192722,17.30526 47.975484,15.5225 1.782764,-1.78276 -17.481842,-46.38884 -15.522496,-47.97549 1.959347,-1.58664 41.585333,26.53111 43.699793,25.15796 2.11447,-1.37315 -7.45504,-49.00981 -5.20862,-50.15441 2.24641,-1.14461 35.16046,34.59741 37.51421,33.69389 2.35375,-0.90352 2.89759,-49.48882 5.33289,-50.14135 2.4353,-0.65254 27.19892,41.15165 29.68908,40.75724 2.49017,-0.3944 13.12357,-47.80492 15.64132,-47.93687 2.51776,-0.13195 18.04865,45.90736 20.56641,46.03931 2.51775,0.13195 22.77598,-44.03174 25.26615,-43.63733 2.49017,0.3944 8.10957,48.6567 10.54487,49.30924 2.4353,0.65253 31.43299,-38.33414 33.78674,-37.43062 2.35375,0.90352 -2.18395,49.27951 0.0625,50.42411 2.24641,1.1446 38.71622,-30.96116 40.83068,-29.58801 2.11446,1.37315 -12.38201,47.74856 -10.42266,49.33521 1.95935,1.58665 44.30737,-22.23503 46.09013,-20.45227 1.78276,1.78277 -22.03892,44.13079 -20.45227,46.09013 1.58665,1.95935 47.96207,-12.53712 49.33522,-10.42266 1.37314,2.11447 -30.73262,38.58427 -29.58802,40.83069 1.14461,2.24641 49.5206,-2.29129 50.42412,0.0625 0.90352,2.35375 -38.08316,31.35145 -37.43062,33.78674 0.65253,2.4353 48.91483,8.0547 49.30924,10.54487 0.3944,2.49017 -43.76928,22.7484 -43.63733,25.26616 0.13195,2.51775 46.17126,18.04865 46.03931,20.5664 -0.13195,2.51775 -47.54248,13.15115 -47.93688,15.64132 -0.3944,2.49017 41.40978,27.25379 40.75725,29.68909 -0.65254,2.4353 -49.23784,2.97913 -50.14136,5.33288 -0.90352,2.35375 34.8385,35.26781 33.6939,37.51422 -1.14461,2.24641 -48.78127,-7.32309 -50.15442,-5.20863 -1.37315,2.11446 26.74461,41.74045 25.15796,43.6998 -1.58665,1.95934 -46.19272,-17.30526 -47.97549,-15.5225 z"
       inkscape:transform-center-x="-1.1926854"
       inkscape:transform-center-y="1.184844"
       transform="matrix(0.99308705,0,0,0.98655969,162.89016,137.7658)" />
    <path
       sodipodi:type="arc"
       style="fill:#ffffa4;fill-opacity:1;stroke:none"
       id="path3759"
       sodipodi:cx="408.57144"
       sodipodi:cy="519.50507"
       sodipodi:rx="144.28572"
       sodipodi:ry="144.28572"
       d="m 552.85716,519.50507 c 0,79.6868 -64.59892,144.28572 -144.28572,144.28572 -79.6868,0 -144.28572,-64.59892 -144.28572,-144.28572 0,-79.68681 64.59892,-144.28572 144.28572,-144.28572 79.6868,0 144.28572,64.59891 144.28572,144.28572 z"
       transform="translate(-35.714303,-21.428597)" />
  </g>
</svg>
